<svg width="30" height="19" viewBox="0 0 30 19" fill="none" xmlns="http://www.w3.org/2000/svg">
<path d="M28.8349 2.11111L1.16505 2.11111C0.524272 2.11111 0 1.63611 0 1.05556C0 0.475 0.524272 0 1.16505 0L28.8349 0C29.4757 0 30 0.475 30 1.05556C30 1.63611 29.4757 2.11111 28.8349 2.11111ZM30 17.9444C30 17.3639 29.4757 16.8889 28.8349 16.8889H1.16505C0.524272 16.8889 0 17.3639 0 17.9444C0 18.525 0.524272 19 1.16505 19H28.8349C29.4757 19 30 18.525 30 17.9444ZM26.068 9.5C26.068 8.91945 25.5437 8.44444 24.9029 8.44444H5.09709C4.45631 8.44444 3.93204 8.91945 3.93204 9.5C3.93204 10.0806 4.45631 10.5556 5.09709 10.5556H24.9029C25.5437 10.5556 26.068 10.0806 26.068 9.5Z" fill="#071E1A"/>
</svg>
